<svg width="500" height="500" viewBox="0 0 500 500" fill="none" xmlns="http://www.w3.org/2000/svg">
<rect width="500" height="500" rx="50" fill="black"/>
<path d="M61.1758 150H115.18L157.465 233.691H159.223L201.508 150H255.512L182.367 283.203V350H134.32V283.203L61.1758 150ZM275.775 350V150H358.393C373.367 150 386.29 152.702 397.162 158.105C408.1 163.444 416.531 171.126 422.455 181.152C428.38 191.113 431.342 202.93 431.342 216.602C431.342 230.469 428.314 242.253 422.26 251.953C416.205 261.589 407.611 268.945 396.479 274.023C385.346 279.036 372.162 281.543 356.928 281.543H304.682V243.457H347.943C355.235 243.457 361.322 242.513 366.205 240.625C371.153 238.672 374.896 235.742 377.436 231.836C379.975 227.865 381.244 222.786 381.244 216.602C381.244 210.417 379.975 205.306 377.436 201.27C374.896 197.168 371.153 194.108 366.205 192.09C361.257 190.007 355.17 188.965 347.943 188.965H324.115V350H275.775ZM388.373 258.594L438.178 350H385.443L336.615 258.594H388.373Z" fill="white"/>
</svg>
